<svg width="16" height="16" viewBox="0 0 16 16" fill="none" xmlns="http://www.w3.org/2000/svg">
<path d="M13.334 1.3335H2.66732C1.93094 1.3335 1.33398 1.93045 1.33398 2.66683V5.3335C1.33398 6.06988 1.93094 6.66683 2.66732 6.66683H13.334C14.0704 6.66683 14.6673 6.06988 14.6673 5.3335V2.66683C14.6673 1.93045 14.0704 1.3335 13.334 1.3335Z" stroke="#3C83F6" stroke-width="1.33333" stroke-linecap="round" stroke-linejoin="round"/>
<path d="M13.334 9.3335H2.66732C1.93094 9.3335 1.33398 9.93045 1.33398 10.6668V13.3335C1.33398 14.0699 1.93094 14.6668 2.66732 14.6668H13.334C14.0704 14.6668 14.6673 14.0699 14.6673 13.3335V10.6668C14.6673 9.93045 14.0704 9.3335 13.334 9.3335Z" stroke="#3C83F6" stroke-width="1.33333" stroke-linecap="round" stroke-linejoin="round"/>
<path d="M4 4H4.00667" stroke="#3C83F6" stroke-width="1.33333" stroke-linecap="round" stroke-linejoin="round"/>
<path d="M4 12H4.00667" stroke="#3C83F6" stroke-width="1.33333" stroke-linecap="round" stroke-linejoin="round"/>
</svg>
